<svg width="1920" height="953" viewBox="0 0 1920 953" fill="none" xmlns="http://www.w3.org/2000/svg">
<circle cx="-0.5" cy="0.5" r="1.5" fill="#D2D6DB"/>
<circle cx="-0.5" cy="633.5" r="1.5" fill="#D2D6DB"/>
<circle cx="833.5" cy="631.5" r="1.5" fill="#D2D6DB"/>
<circle cx="417.5" cy="0.5" r="1.5" fill="#D2D6DB"/>
<circle cx="417.5" cy="633.5" r="1.5" fill="#D2D6DB"/>
<circle cx="1251.5" cy="631.5" r="1.5" fill="#D2D6DB"/>
<circle cx="-0.5" cy="212.5" r="1.5" fill="#D2D6DB"/>
<circle cx="-0.5" cy="845.5" r="1.5" fill="#D2D6DB"/>
<circle cx="833.5" cy="210.5" r="1.5" fill="#D2D6DB"/>
<circle cx="833.5" cy="843.5" r="1.5" fill="#D2D6DB"/>
<circle cx="417.5" cy="212.5" r="1.5" fill="#D2D6DB"/>
<circle cx="417.5" cy="845.5" r="1.5" fill="#D2D6DB"/>
<circle cx="1251.5" cy="210.5" r="1.5" fill="#D2D6DB"/>
<circle cx="1251.5" cy="843.5" r="1.5" fill="#D2D6DB"/>
<circle cx="-0.5" cy="424.5" r="1.5" fill="#D2D6DB"/>
<circle cx="833.5" cy="422.5" r="1.5" fill="#D2D6DB"/>
<circle cx="417.5" cy="424.5" r="1.5" fill="#D2D6DB"/>
<circle cx="1251.5" cy="422.5" r="1.5" fill="#D2D6DB"/>
<circle cx="-0.5" cy="106.5" r="1.5" fill="#D2D6DB"/>
<circle cx="-0.5" cy="739.5" r="1.5" fill="#D2D6DB"/>
<circle cx="833.5" cy="104.5" r="1.5" fill="#D2D6DB"/>
<circle cx="833.5" cy="737.5" r="1.5" fill="#D2D6DB"/>
<circle cx="417.5" cy="106.5" r="1.5" fill="#D2D6DB"/>
<circle cx="417.5" cy="739.5" r="1.5" fill="#D2D6DB"/>
<circle cx="1251.5" cy="104.5" r="1.5" fill="#D2D6DB"/>
<circle cx="1251.5" cy="737.5" r="1.5" fill="#D2D6DB"/>
<circle cx="-0.5" cy="318.5" r="1.5" fill="#D2D6DB"/>
<circle cx="-0.5" cy="951.5" r="1.5" fill="#D2D6DB"/>
<circle cx="833.5" cy="316.5" r="1.5" fill="#D2D6DB"/>
<circle cx="833.5" cy="949.5" r="1.5" fill="#D2D6DB"/>
<circle cx="417.5" cy="318.5" r="1.5" fill="#D2D6DB"/>
<circle cx="417.5" cy="951.5" r="1.5" fill="#D2D6DB"/>
<circle cx="1251.5" cy="316.5" r="1.5" fill="#D2D6DB"/>
<circle cx="1251.5" cy="949.5" r="1.5" fill="#D2D6DB"/>
<circle cx="-0.5" cy="530.5" r="1.5" fill="#D2D6DB"/>
<circle cx="833.5" cy="528.5" r="1.5" fill="#D2D6DB"/>
<circle cx="417.5" cy="530.5" r="1.5" fill="#D2D6DB"/>
<circle cx="1251.5" cy="528.5" r="1.5" fill="#D2D6DB"/>
<circle cx="-0.5" cy="53.5" r="1.5" fill="#D2D6DB"/>
<circle cx="-0.5" cy="686.5" r="1.5" fill="#D2D6DB"/>
<circle cx="833.5" cy="51.5" r="1.5" fill="#D2D6DB"/>
<circle cx="833.5" cy="684.5" r="1.5" fill="#D2D6DB"/>
<circle cx="417.5" cy="53.5" r="1.5" fill="#D2D6DB"/>
<circle cx="417.5" cy="686.5" r="1.5" fill="#D2D6DB"/>
<circle cx="1251.5" cy="51.5" r="1.5" fill="#D2D6DB"/>
<circle cx="1251.5" cy="684.5" r="1.5" fill="#D2D6DB"/>
<circle cx="-0.5" cy="265.5" r="1.5" fill="#D2D6DB"/>
<circle cx="-0.5" cy="898.5" r="1.5" fill="#D2D6DB"/>
<circle cx="833.5" cy="263.5" r="1.5" fill="#D2D6DB"/>
<circle cx="833.5" cy="896.5" r="1.5" fill="#D2D6DB"/>
<circle cx="417.5" cy="265.5" r="1.5" fill="#D2D6DB"/>
<circle cx="417.5" cy="898.5" r="1.5" fill="#D2D6DB"/>
<circle cx="1251.5" cy="263.5" r="1.5" fill="#D2D6DB"/>
<circle cx="1251.5" cy="896.5" r="1.5" fill="#D2D6DB"/>
<circle cx="-0.5" cy="477.5" r="1.5" fill="#D2D6DB"/>
<circle cx="833.5" cy="475.5" r="1.5" fill="#D2D6DB"/>
<circle cx="417.5" cy="477.5" r="1.5" fill="#D2D6DB"/>
<circle cx="1251.5" cy="475.5" r="1.5" fill="#D2D6DB"/>
<circle cx="-0.5" cy="159.5" r="1.5" fill="#D2D6DB"/>
<circle cx="-0.5" cy="792.5" r="1.5" fill="#D2D6DB"/>
<circle cx="833.5" cy="157.5" r="1.5" fill="#D2D6DB"/>
<circle cx="833.5" cy="790.5" r="1.5" fill="#D2D6DB"/>
<circle cx="417.5" cy="159.5" r="1.5" fill="#D2D6DB"/>
<circle cx="417.5" cy="792.5" r="1.5" fill="#D2D6DB"/>
<circle cx="1251.5" cy="157.5" r="1.5" fill="#D2D6DB"/>
<circle cx="1251.5" cy="790.5" r="1.5" fill="#D2D6DB"/>
<circle cx="-0.5" cy="371.5" r="1.5" fill="#D2D6DB"/>
<circle cx="833.5" cy="369.5" r="1.5" fill="#D2D6DB"/>
<circle cx="417.5" cy="371.5" r="1.5" fill="#D2D6DB"/>
<circle cx="1251.5" cy="369.5" r="1.5" fill="#D2D6DB"/>
<circle cx="-0.5" cy="583.5" r="1.5" fill="#D2D6DB"/>
<circle cx="833.5" cy="581.5" r="1.5" fill="#D2D6DB"/>
<circle cx="417.5" cy="583.5" r="1.5" fill="#D2D6DB"/>
<circle cx="1251.5" cy="581.5" r="1.5" fill="#D2D6DB"/>
<circle cx="207.5" cy="0.5" r="1.5" fill="#D2D6DB"/>
<circle cx="207.5" cy="633.5" r="1.5" fill="#D2D6DB"/>
<circle cx="1041.5" cy="631.5" r="1.5" fill="#D2D6DB"/>
<circle cx="625.5" cy="0.5" r="1.5" fill="#D2D6DB"/>
<circle cx="625.5" cy="633.5" r="1.5" fill="#D2D6DB"/>
<circle cx="1459.5" cy="631.5" r="1.5" fill="#D2D6DB"/>
<circle cx="1823.5" cy="631.5" r="1.5" fill="#D2D6DB"/>
<circle cx="207.5" cy="212.5" r="1.5" fill="#D2D6DB"/>
<circle cx="207.5" cy="845.5" r="1.5" fill="#D2D6DB"/>
<circle cx="1041.5" cy="210.5" r="1.5" fill="#D2D6DB"/>
<circle cx="1041.5" cy="843.5" r="1.5" fill="#D2D6DB"/>
<circle cx="625.5" cy="212.5" r="1.5" fill="#D2D6DB"/>
<circle cx="625.5" cy="845.5" r="1.5" fill="#D2D6DB"/>
<circle cx="1459.5" cy="210.5" r="1.5" fill="#D2D6DB"/>
<circle cx="1823.5" cy="210.5" r="1.5" fill="#D2D6DB"/>
<circle cx="1459.5" cy="843.5" r="1.5" fill="#D2D6DB"/>
<circle cx="1823.5" cy="843.5" r="1.5" fill="#D2D6DB"/>
<circle cx="207.5" cy="424.5" r="1.5" fill="#D2D6DB"/>
<circle cx="1041.5" cy="422.5" r="1.5" fill="#D2D6DB"/>
<circle cx="625.5" cy="424.5" r="1.5" fill="#D2D6DB"/>
<circle cx="1459.5" cy="422.5" r="1.5" fill="#D2D6DB"/>
<circle cx="1823.5" cy="422.5" r="1.5" fill="#D2D6DB"/>
<circle cx="207.5" cy="106.5" r="1.5" fill="#D2D6DB"/>
<circle cx="207.5" cy="739.5" r="1.5" fill="#D2D6DB"/>
<circle cx="1041.5" cy="104.5" r="1.5" fill="#D2D6DB"/>
<circle cx="1041.5" cy="737.5" r="1.5" fill="#D2D6DB"/>
<circle cx="625.5" cy="106.5" r="1.5" fill="#D2D6DB"/>
<circle cx="625.5" cy="739.5" r="1.5" fill="#D2D6DB"/>
<circle cx="1459.5" cy="104.5" r="1.5" fill="#D2D6DB"/>
<circle cx="1823.5" cy="104.5" r="1.5" fill="#D2D6DB"/>
<circle cx="1459.5" cy="737.5" r="1.5" fill="#D2D6DB"/>
<circle cx="1823.5" cy="737.5" r="1.5" fill="#D2D6DB"/>
<circle cx="207.5" cy="318.5" r="1.5" fill="#D2D6DB"/>
<circle cx="207.5" cy="951.5" r="1.5" fill="#D2D6DB"/>
<circle cx="1041.5" cy="316.5" r="1.5" fill="#D2D6DB"/>
<circle cx="1041.5" cy="949.5" r="1.5" fill="#D2D6DB"/>
<circle cx="625.5" cy="318.5" r="1.5" fill="#D2D6DB"/>
<circle cx="625.5" cy="951.5" r="1.5" fill="#D2D6DB"/>
<circle cx="1459.5" cy="316.5" r="1.5" fill="#D2D6DB"/>
<circle cx="1823.5" cy="316.5" r="1.5" fill="#D2D6DB"/>
<circle cx="1459.5" cy="949.5" r="1.5" fill="#D2D6DB"/>
<circle cx="1823.5" cy="949.5" r="1.5" fill="#D2D6DB"/>
<circle cx="207.5" cy="530.5" r="1.5" fill="#D2D6DB"/>
<circle cx="1041.5" cy="528.5" r="1.5" fill="#D2D6DB"/>
<circle cx="625.5" cy="530.5" r="1.5" fill="#D2D6DB"/>
<circle cx="1459.5" cy="528.5" r="1.5" fill="#D2D6DB"/>
<circle cx="1823.5" cy="528.5" r="1.5" fill="#D2D6DB"/>
<circle cx="207.5" cy="53.5" r="1.5" fill="#D2D6DB"/>
<circle cx="207.5" cy="686.5" r="1.5" fill="#D2D6DB"/>
<circle cx="1041.5" cy="51.5" r="1.5" fill="#D2D6DB"/>
<circle cx="1041.5" cy="684.5" r="1.5" fill="#D2D6DB"/>
<circle cx="625.5" cy="53.5" r="1.5" fill="#D2D6DB"/>
<circle cx="625.5" cy="686.5" r="1.5" fill="#D2D6DB"/>
<circle cx="1459.5" cy="51.5" r="1.5" fill="#D2D6DB"/>
<circle cx="1823.5" cy="51.5" r="1.5" fill="#D2D6DB"/>
<circle cx="1459.5" cy="684.5" r="1.5" fill="#D2D6DB"/>
<circle cx="1823.5" cy="684.5" r="1.5" fill="#D2D6DB"/>
<circle cx="207.5" cy="265.5" r="1.5" fill="#D2D6DB"/>
<circle cx="207.5" cy="898.5" r="1.5" fill="#D2D6DB"/>
<circle cx="1041.5" cy="263.5" r="1.5" fill="#D2D6DB"/>
<circle cx="1041.5" cy="896.5" r="1.5" fill="#D2D6DB"/>
<circle cx="625.5" cy="265.5" r="1.5" fill="#D2D6DB"/>
<circle cx="625.5" cy="898.5" r="1.5" fill="#D2D6DB"/>
<circle cx="1459.5" cy="263.5" r="1.5" fill="#D2D6DB"/>
<circle cx="1823.5" cy="263.5" r="1.5" fill="#D2D6DB"/>
<circle cx="1459.5" cy="896.5" r="1.5" fill="#D2D6DB"/>
<circle cx="1823.5" cy="896.5" r="1.5" fill="#D2D6DB"/>
<circle cx="207.5" cy="477.5" r="1.5" fill="#D2D6DB"/>
<circle cx="1041.5" cy="475.5" r="1.5" fill="#D2D6DB"/>
<circle cx="625.5" cy="477.5" r="1.5" fill="#D2D6DB"/>
<circle cx="1459.5" cy="475.5" r="1.5" fill="#D2D6DB"/>
<circle cx="1823.5" cy="475.5" r="1.5" fill="#D2D6DB"/>
<circle cx="207.5" cy="159.5" r="1.5" fill="#D2D6DB"/>
<circle cx="207.5" cy="792.5" r="1.5" fill="#D2D6DB"/>
<circle cx="1041.5" cy="157.5" r="1.5" fill="#D2D6DB"/>
<circle cx="1041.5" cy="790.5" r="1.5" fill="#D2D6DB"/>
<circle cx="625.5" cy="159.5" r="1.5" fill="#D2D6DB"/>
<circle cx="625.5" cy="792.5" r="1.5" fill="#D2D6DB"/>
<circle cx="1459.5" cy="157.5" r="1.5" fill="#D2D6DB"/>
<circle cx="1823.5" cy="157.5" r="1.5" fill="#D2D6DB"/>
<circle cx="1459.5" cy="790.5" r="1.5" fill="#D2D6DB"/>
<circle cx="1823.5" cy="790.5" r="1.5" fill="#D2D6DB"/>
<circle cx="207.5" cy="371.5" r="1.5" fill="#D2D6DB"/>
<circle cx="1041.5" cy="369.5" r="1.5" fill="#D2D6DB"/>
<circle cx="625.5" cy="371.5" r="1.5" fill="#D2D6DB"/>
<circle cx="1459.5" cy="369.5" r="1.5" fill="#D2D6DB"/>
<circle cx="1823.5" cy="369.5" r="1.5" fill="#D2D6DB"/>
<circle cx="207.5" cy="583.5" r="1.5" fill="#D2D6DB"/>
<circle cx="1041.5" cy="581.5" r="1.5" fill="#D2D6DB"/>
<circle cx="625.5" cy="583.5" r="1.5" fill="#D2D6DB"/>
<circle cx="1459.5" cy="581.5" r="1.5" fill="#D2D6DB"/>
<circle cx="1823.5" cy="581.5" r="1.5" fill="#D2D6DB"/>
<circle cx="51.5" cy="0.5" r="1.5" fill="#D2D6DB"/>
<circle cx="51.5" cy="633.5" r="1.5" fill="#D2D6DB"/>
<circle cx="885.5" cy="631.5" r="1.5" fill="#D2D6DB"/>
<circle cx="469.5" cy="0.5" r="1.5" fill="#D2D6DB"/>
<circle cx="469.5" cy="633.5" r="1.5" fill="#D2D6DB"/>
<circle cx="1303.5" cy="631.5" r="1.5" fill="#D2D6DB"/>
<circle cx="1667.5" cy="631.5" r="1.5" fill="#D2D6DB"/>
<circle cx="51.5" cy="212.5" r="1.5" fill="#D2D6DB"/>
<circle cx="51.5" cy="845.5" r="1.5" fill="#D2D6DB"/>
<circle cx="885.5" cy="210.5" r="1.5" fill="#D2D6DB"/>
<circle cx="885.5" cy="843.5" r="1.5" fill="#D2D6DB"/>
<circle cx="469.5" cy="212.5" r="1.5" fill="#D2D6DB"/>
<circle cx="469.5" cy="845.5" r="1.5" fill="#D2D6DB"/>
<circle cx="1303.5" cy="210.5" r="1.5" fill="#D2D6DB"/>
<circle cx="1667.5" cy="210.5" r="1.5" fill="#D2D6DB"/>
<circle cx="1303.5" cy="843.5" r="1.5" fill="#D2D6DB"/>
<circle cx="1667.5" cy="843.5" r="1.5" fill="#D2D6DB"/>
<circle cx="51.5" cy="424.5" r="1.5" fill="#D2D6DB"/>
<circle cx="885.5" cy="422.5" r="1.5" fill="#D2D6DB"/>
<circle cx="469.5" cy="424.5" r="1.5" fill="#D2D6DB"/>
<circle cx="1303.5" cy="422.5" r="1.5" fill="#D2D6DB"/>
<circle cx="1667.5" cy="422.5" r="1.5" fill="#D2D6DB"/>
<circle cx="51.5" cy="106.5" r="1.5" fill="#D2D6DB"/>
<circle cx="51.5" cy="739.5" r="1.5" fill="#D2D6DB"/>
<circle cx="885.5" cy="104.5" r="1.5" fill="#D2D6DB"/>
<circle cx="885.5" cy="737.5" r="1.5" fill="#D2D6DB"/>
<circle cx="469.5" cy="106.5" r="1.5" fill="#D2D6DB"/>
<circle cx="469.5" cy="739.5" r="1.5" fill="#D2D6DB"/>
<circle cx="1303.5" cy="104.5" r="1.5" fill="#D2D6DB"/>
<circle cx="1667.5" cy="104.5" r="1.5" fill="#D2D6DB"/>
<circle cx="1303.5" cy="737.5" r="1.5" fill="#D2D6DB"/>
<circle cx="1667.5" cy="737.5" r="1.5" fill="#D2D6DB"/>
<circle cx="51.5" cy="318.5" r="1.5" fill="#D2D6DB"/>
<circle cx="51.5" cy="951.5" r="1.5" fill="#D2D6DB"/>
<circle cx="885.5" cy="316.5" r="1.5" fill="#D2D6DB"/>
<circle cx="885.5" cy="949.5" r="1.5" fill="#D2D6DB"/>
<circle cx="469.5" cy="318.5" r="1.5" fill="#D2D6DB"/>
<circle cx="469.5" cy="951.5" r="1.5" fill="#D2D6DB"/>
<circle cx="1303.5" cy="316.5" r="1.5" fill="#D2D6DB"/>
<circle cx="1667.5" cy="316.5" r="1.5" fill="#D2D6DB"/>
<circle cx="1303.5" cy="949.5" r="1.5" fill="#D2D6DB"/>
<circle cx="1667.5" cy="949.5" r="1.5" fill="#D2D6DB"/>
<circle cx="51.5" cy="530.5" r="1.5" fill="#D2D6DB"/>
<circle cx="885.5" cy="528.5" r="1.5" fill="#D2D6DB"/>
<circle cx="469.5" cy="530.5" r="1.5" fill="#D2D6DB"/>
<circle cx="1303.5" cy="528.5" r="1.5" fill="#D2D6DB"/>
<circle cx="1667.5" cy="528.5" r="1.5" fill="#D2D6DB"/>
<circle cx="51.5" cy="53.5" r="1.5" fill="#D2D6DB"/>
<circle cx="51.5" cy="686.5" r="1.5" fill="#D2D6DB"/>
<circle cx="885.5" cy="51.5" r="1.5" fill="#D2D6DB"/>
<circle cx="885.5" cy="684.5" r="1.5" fill="#D2D6DB"/>
<circle cx="469.5" cy="53.5" r="1.5" fill="#D2D6DB"/>
<circle cx="469.5" cy="686.5" r="1.5" fill="#D2D6DB"/>
<circle cx="1303.5" cy="51.5" r="1.5" fill="#D2D6DB"/>
<circle cx="1667.5" cy="51.5" r="1.5" fill="#D2D6DB"/>
<circle cx="1303.5" cy="684.5" r="1.5" fill="#D2D6DB"/>
<circle cx="1667.5" cy="684.5" r="1.5" fill="#D2D6DB"/>
<circle cx="51.5" cy="265.5" r="1.5" fill="#D2D6DB"/>
<circle cx="51.5" cy="898.5" r="1.5" fill="#D2D6DB"/>
<circle cx="885.5" cy="263.5" r="1.5" fill="#D2D6DB"/>
<circle cx="885.5" cy="896.5" r="1.5" fill="#D2D6DB"/>
<circle cx="469.5" cy="265.5" r="1.5" fill="#D2D6DB"/>
<circle cx="469.5" cy="898.5" r="1.5" fill="#D2D6DB"/>
<circle cx="1303.5" cy="263.5" r="1.5" fill="#D2D6DB"/>
<circle cx="1667.5" cy="263.5" r="1.5" fill="#D2D6DB"/>
<circle cx="1303.5" cy="896.5" r="1.5" fill="#D2D6DB"/>
<circle cx="1667.5" cy="896.5" r="1.5" fill="#D2D6DB"/>
<circle cx="51.5" cy="477.5" r="1.5" fill="#D2D6DB"/>
<circle cx="885.5" cy="475.5" r="1.5" fill="#D2D6DB"/>
<circle cx="469.5" cy="477.5" r="1.5" fill="#D2D6DB"/>
<circle cx="1303.5" cy="475.5" r="1.5" fill="#D2D6DB"/>
<circle cx="1667.5" cy="475.5" r="1.5" fill="#D2D6DB"/>
<circle cx="51.5" cy="159.5" r="1.5" fill="#D2D6DB"/>
<circle cx="51.5" cy="792.5" r="1.5" fill="#D2D6DB"/>
<circle cx="885.5" cy="157.5" r="1.5" fill="#D2D6DB"/>
<circle cx="885.5" cy="790.5" r="1.5" fill="#D2D6DB"/>
<circle cx="469.5" cy="159.5" r="1.5" fill="#D2D6DB"/>
<circle cx="469.5" cy="792.5" r="1.5" fill="#D2D6DB"/>
<circle cx="1303.5" cy="157.5" r="1.5" fill="#D2D6DB"/>
<circle cx="1667.5" cy="157.5" r="1.5" fill="#D2D6DB"/>
<circle cx="1303.5" cy="790.5" r="1.5" fill="#D2D6DB"/>
<circle cx="1667.5" cy="790.5" r="1.5" fill="#D2D6DB"/>
<circle cx="51.5" cy="371.5" r="1.5" fill="#D2D6DB"/>
<circle cx="885.5" cy="369.5" r="1.5" fill="#D2D6DB"/>
<circle cx="469.5" cy="371.5" r="1.5" fill="#D2D6DB"/>
<circle cx="1303.5" cy="369.5" r="1.5" fill="#D2D6DB"/>
<circle cx="1667.5" cy="369.5" r="1.5" fill="#D2D6DB"/>
<circle cx="51.5" cy="583.5" r="1.5" fill="#D2D6DB"/>
<circle cx="885.5" cy="581.5" r="1.5" fill="#D2D6DB"/>
<circle cx="469.5" cy="583.5" r="1.5" fill="#D2D6DB"/>
<circle cx="1303.5" cy="581.5" r="1.5" fill="#D2D6DB"/>
<circle cx="1667.5" cy="581.5" r="1.5" fill="#D2D6DB"/>
<circle cx="259.5" cy="0.5" r="1.5" fill="#D2D6DB"/>
<circle cx="259.5" cy="633.5" r="1.5" fill="#D2D6DB"/>
<circle cx="1093.5" cy="631.5" r="1.5" fill="#D2D6DB"/>
<circle cx="677.5" cy="0.5" r="1.5" fill="#D2D6DB"/>
<circle cx="677.5" cy="633.5" r="1.5" fill="#D2D6DB"/>
<circle cx="1511.5" cy="631.5" r="1.5" fill="#D2D6DB"/>
<circle cx="1875.5" cy="631.5" r="1.5" fill="#D2D6DB"/>
<circle cx="259.5" cy="212.5" r="1.5" fill="#D2D6DB"/>
<circle cx="259.5" cy="845.5" r="1.5" fill="#D2D6DB"/>
<circle cx="1093.5" cy="210.5" r="1.5" fill="#D2D6DB"/>
<circle cx="1093.5" cy="843.5" r="1.5" fill="#D2D6DB"/>
<circle cx="677.5" cy="212.5" r="1.5" fill="#D2D6DB"/>
<circle cx="677.5" cy="845.5" r="1.5" fill="#D2D6DB"/>
<circle cx="1511.5" cy="210.5" r="1.5" fill="#D2D6DB"/>
<circle cx="1875.5" cy="210.5" r="1.5" fill="#D2D6DB"/>
<circle cx="1511.5" cy="843.5" r="1.5" fill="#D2D6DB"/>
<circle cx="1875.5" cy="843.5" r="1.5" fill="#D2D6DB"/>
<circle cx="259.5" cy="424.5" r="1.5" fill="#D2D6DB"/>
<circle cx="1093.5" cy="422.5" r="1.5" fill="#D2D6DB"/>
<circle cx="677.5" cy="424.5" r="1.5" fill="#D2D6DB"/>
<circle cx="1511.5" cy="422.5" r="1.5" fill="#D2D6DB"/>
<circle cx="1875.5" cy="422.5" r="1.5" fill="#D2D6DB"/>
<circle cx="259.5" cy="106.5" r="1.5" fill="#D2D6DB"/>
<circle cx="259.5" cy="739.5" r="1.5" fill="#D2D6DB"/>
<circle cx="1093.5" cy="104.5" r="1.5" fill="#D2D6DB"/>
<circle cx="1093.5" cy="737.5" r="1.5" fill="#D2D6DB"/>
<circle cx="677.5" cy="106.5" r="1.5" fill="#D2D6DB"/>
<circle cx="677.5" cy="739.5" r="1.5" fill="#D2D6DB"/>
<circle cx="1511.5" cy="104.5" r="1.5" fill="#D2D6DB"/>
<circle cx="1875.5" cy="104.5" r="1.5" fill="#D2D6DB"/>
<circle cx="1511.5" cy="737.5" r="1.5" fill="#D2D6DB"/>
<circle cx="1875.5" cy="737.5" r="1.5" fill="#D2D6DB"/>
<circle cx="259.5" cy="318.5" r="1.5" fill="#D2D6DB"/>
<circle cx="259.5" cy="951.5" r="1.5" fill="#D2D6DB"/>
<circle cx="1093.5" cy="316.5" r="1.5" fill="#D2D6DB"/>
<circle cx="1093.5" cy="949.5" r="1.5" fill="#D2D6DB"/>
<circle cx="677.5" cy="318.5" r="1.5" fill="#D2D6DB"/>
<circle cx="677.5" cy="951.5" r="1.5" fill="#D2D6DB"/>
<circle cx="1511.5" cy="316.5" r="1.5" fill="#D2D6DB"/>
<circle cx="1875.5" cy="316.5" r="1.5" fill="#D2D6DB"/>
<circle cx="1511.5" cy="949.5" r="1.5" fill="#D2D6DB"/>
<circle cx="1875.5" cy="949.5" r="1.5" fill="#D2D6DB"/>
<circle cx="259.5" cy="530.5" r="1.5" fill="#D2D6DB"/>
<circle cx="1093.5" cy="528.5" r="1.5" fill="#D2D6DB"/>
<circle cx="677.5" cy="530.5" r="1.5" fill="#D2D6DB"/>
<circle cx="1511.5" cy="528.5" r="1.5" fill="#D2D6DB"/>
<circle cx="1875.5" cy="528.5" r="1.5" fill="#D2D6DB"/>
<circle cx="259.5" cy="53.5" r="1.5" fill="#D2D6DB"/>
<circle cx="259.5" cy="686.5" r="1.5" fill="#D2D6DB"/>
<circle cx="1093.5" cy="51.5" r="1.5" fill="#D2D6DB"/>
<circle cx="1093.5" cy="684.5" r="1.5" fill="#D2D6DB"/>
<circle cx="677.5" cy="53.5" r="1.5" fill="#D2D6DB"/>
<circle cx="677.5" cy="686.5" r="1.5" fill="#D2D6DB"/>
<circle cx="1511.5" cy="51.5" r="1.5" fill="#D2D6DB"/>
<circle cx="1875.5" cy="51.5" r="1.5" fill="#D2D6DB"/>
<circle cx="1511.5" cy="684.5" r="1.5" fill="#D2D6DB"/>
<circle cx="1875.5" cy="684.5" r="1.5" fill="#D2D6DB"/>
<circle cx="259.5" cy="265.5" r="1.5" fill="#D2D6DB"/>
<circle cx="259.5" cy="898.5" r="1.5" fill="#D2D6DB"/>
<circle cx="1093.5" cy="263.5" r="1.5" fill="#D2D6DB"/>
<circle cx="1093.5" cy="896.5" r="1.5" fill="#D2D6DB"/>
<circle cx="677.5" cy="265.5" r="1.5" fill="#D2D6DB"/>
<circle cx="677.5" cy="898.5" r="1.5" fill="#D2D6DB"/>
<circle cx="1511.5" cy="263.5" r="1.5" fill="#D2D6DB"/>
<circle cx="1875.5" cy="263.5" r="1.5" fill="#D2D6DB"/>
<circle cx="1511.5" cy="896.5" r="1.5" fill="#D2D6DB"/>
<circle cx="1875.5" cy="896.5" r="1.5" fill="#D2D6DB"/>
<circle cx="259.5" cy="477.5" r="1.5" fill="#D2D6DB"/>
<circle cx="1093.5" cy="475.5" r="1.5" fill="#D2D6DB"/>
<circle cx="677.5" cy="477.5" r="1.5" fill="#D2D6DB"/>
<circle cx="1511.5" cy="475.5" r="1.5" fill="#D2D6DB"/>
<circle cx="1875.5" cy="475.5" r="1.5" fill="#D2D6DB"/>
<circle cx="259.5" cy="159.5" r="1.5" fill="#D2D6DB"/>
<circle cx="259.5" cy="792.5" r="1.5" fill="#D2D6DB"/>
<circle cx="1093.5" cy="157.5" r="1.5" fill="#D2D6DB"/>
<circle cx="1093.5" cy="790.5" r="1.5" fill="#D2D6DB"/>
<circle cx="677.5" cy="159.5" r="1.5" fill="#D2D6DB"/>
<circle cx="677.5" cy="792.5" r="1.5" fill="#D2D6DB"/>
<circle cx="1511.5" cy="157.5" r="1.5" fill="#D2D6DB"/>
<circle cx="1875.5" cy="157.5" r="1.5" fill="#D2D6DB"/>
<circle cx="1511.5" cy="790.5" r="1.5" fill="#D2D6DB"/>
<circle cx="1875.5" cy="790.5" r="1.5" fill="#D2D6DB"/>
<circle cx="259.5" cy="371.5" r="1.5" fill="#D2D6DB"/>
<circle cx="1093.5" cy="369.5" r="1.5" fill="#D2D6DB"/>
<circle cx="677.5" cy="371.5" r="1.5" fill="#D2D6DB"/>
<circle cx="1511.5" cy="369.5" r="1.5" fill="#D2D6DB"/>
<circle cx="1875.5" cy="369.5" r="1.5" fill="#D2D6DB"/>
<circle cx="259.5" cy="583.5" r="1.5" fill="#D2D6DB"/>
<circle cx="1093.5" cy="581.5" r="1.5" fill="#D2D6DB"/>
<circle cx="677.5" cy="583.5" r="1.5" fill="#D2D6DB"/>
<circle cx="1511.5" cy="581.5" r="1.5" fill="#D2D6DB"/>
<circle cx="1875.5" cy="581.5" r="1.5" fill="#D2D6DB"/>
<circle cx="103.5" cy="0.5" r="1.5" fill="#D2D6DB"/>
<circle cx="103.5" cy="633.5" r="1.5" fill="#D2D6DB"/>
<circle cx="937.5" cy="631.5" r="1.5" fill="#D2D6DB"/>
<circle cx="521.5" cy="0.5" r="1.5" fill="#D2D6DB"/>
<circle cx="521.5" cy="633.5" r="1.5" fill="#D2D6DB"/>
<circle cx="1355.5" cy="631.5" r="1.5" fill="#D2D6DB"/>
<circle cx="1719.5" cy="631.5" r="1.5" fill="#D2D6DB"/>
<circle cx="103.5" cy="212.5" r="1.5" fill="#D2D6DB"/>
<circle cx="103.5" cy="845.5" r="1.5" fill="#D2D6DB"/>
<circle cx="937.5" cy="210.5" r="1.5" fill="#D2D6DB"/>
<circle cx="937.5" cy="843.5" r="1.5" fill="#D2D6DB"/>
<circle cx="521.5" cy="212.5" r="1.5" fill="#D2D6DB"/>
<circle cx="521.5" cy="845.5" r="1.5" fill="#D2D6DB"/>
<circle cx="1355.5" cy="210.5" r="1.5" fill="#D2D6DB"/>
<circle cx="1719.5" cy="210.5" r="1.5" fill="#D2D6DB"/>
<circle cx="1355.5" cy="843.5" r="1.5" fill="#D2D6DB"/>
<circle cx="1719.5" cy="843.5" r="1.5" fill="#D2D6DB"/>
<circle cx="103.5" cy="424.5" r="1.5" fill="#D2D6DB"/>
<circle cx="937.5" cy="422.5" r="1.5" fill="#D2D6DB"/>
<circle cx="521.5" cy="424.5" r="1.5" fill="#D2D6DB"/>
<circle cx="1355.5" cy="422.5" r="1.5" fill="#D2D6DB"/>
<circle cx="1719.5" cy="422.5" r="1.5" fill="#D2D6DB"/>
<circle cx="103.5" cy="106.5" r="1.5" fill="#D2D6DB"/>
<circle cx="103.5" cy="739.5" r="1.5" fill="#D2D6DB"/>
<circle cx="937.5" cy="104.5" r="1.5" fill="#D2D6DB"/>
<circle cx="937.5" cy="737.5" r="1.5" fill="#D2D6DB"/>
<circle cx="521.5" cy="106.5" r="1.5" fill="#D2D6DB"/>
<circle cx="521.5" cy="739.5" r="1.5" fill="#D2D6DB"/>
<circle cx="1355.5" cy="104.5" r="1.5" fill="#D2D6DB"/>
<circle cx="1719.5" cy="104.5" r="1.5" fill="#D2D6DB"/>
<circle cx="1355.5" cy="737.5" r="1.5" fill="#D2D6DB"/>
<circle cx="1719.5" cy="737.5" r="1.5" fill="#D2D6DB"/>
<circle cx="103.5" cy="318.5" r="1.5" fill="#D2D6DB"/>
<circle cx="103.5" cy="951.5" r="1.5" fill="#D2D6DB"/>
<circle cx="937.5" cy="316.5" r="1.5" fill="#D2D6DB"/>
<circle cx="937.5" cy="949.5" r="1.5" fill="#D2D6DB"/>
<circle cx="521.5" cy="318.5" r="1.5" fill="#D2D6DB"/>
<circle cx="521.5" cy="951.5" r="1.5" fill="#D2D6DB"/>
<circle cx="1355.5" cy="316.5" r="1.5" fill="#D2D6DB"/>
<circle cx="1719.5" cy="316.5" r="1.5" fill="#D2D6DB"/>
<circle cx="1355.5" cy="949.5" r="1.5" fill="#D2D6DB"/>
<circle cx="1719.5" cy="949.5" r="1.5" fill="#D2D6DB"/>
<circle cx="103.5" cy="530.5" r="1.5" fill="#D2D6DB"/>
<circle cx="937.5" cy="528.5" r="1.5" fill="#D2D6DB"/>
<circle cx="521.5" cy="530.5" r="1.5" fill="#D2D6DB"/>
<circle cx="1355.5" cy="528.5" r="1.5" fill="#D2D6DB"/>
<circle cx="1719.5" cy="528.5" r="1.5" fill="#D2D6DB"/>
<circle cx="103.5" cy="53.5" r="1.5" fill="#D2D6DB"/>
<circle cx="103.5" cy="686.5" r="1.5" fill="#D2D6DB"/>
<circle cx="937.5" cy="51.5" r="1.5" fill="#D2D6DB"/>
<circle cx="937.5" cy="684.5" r="1.5" fill="#D2D6DB"/>
<circle cx="521.5" cy="53.5" r="1.5" fill="#D2D6DB"/>
<circle cx="521.5" cy="686.5" r="1.5" fill="#D2D6DB"/>
<circle cx="1355.5" cy="51.5" r="1.5" fill="#D2D6DB"/>
<circle cx="1719.5" cy="51.5" r="1.5" fill="#D2D6DB"/>
<circle cx="1355.5" cy="684.5" r="1.5" fill="#D2D6DB"/>
<circle cx="1719.5" cy="684.5" r="1.5" fill="#D2D6DB"/>
<circle cx="103.5" cy="265.5" r="1.5" fill="#D2D6DB"/>
<circle cx="103.5" cy="898.5" r="1.5" fill="#D2D6DB"/>
<circle cx="937.5" cy="263.5" r="1.5" fill="#D2D6DB"/>
<circle cx="937.5" cy="896.5" r="1.5" fill="#D2D6DB"/>
<circle cx="521.5" cy="265.5" r="1.5" fill="#D2D6DB"/>
<circle cx="521.5" cy="898.5" r="1.5" fill="#D2D6DB"/>
<circle cx="1355.5" cy="263.5" r="1.5" fill="#D2D6DB"/>
<circle cx="1719.5" cy="263.5" r="1.5" fill="#D2D6DB"/>
<circle cx="1355.5" cy="896.5" r="1.5" fill="#D2D6DB"/>
<circle cx="1719.5" cy="896.5" r="1.5" fill="#D2D6DB"/>
<circle cx="103.5" cy="477.5" r="1.5" fill="#D2D6DB"/>
<circle cx="937.5" cy="475.5" r="1.5" fill="#D2D6DB"/>
<circle cx="521.5" cy="477.5" r="1.5" fill="#D2D6DB"/>
<circle cx="1355.5" cy="475.5" r="1.5" fill="#D2D6DB"/>
<circle cx="1719.5" cy="475.5" r="1.5" fill="#D2D6DB"/>
<circle cx="103.5" cy="159.5" r="1.5" fill="#D2D6DB"/>
<circle cx="103.5" cy="792.5" r="1.5" fill="#D2D6DB"/>
<circle cx="937.5" cy="157.5" r="1.5" fill="#D2D6DB"/>
<circle cx="937.5" cy="790.5" r="1.5" fill="#D2D6DB"/>
<circle cx="521.5" cy="159.5" r="1.5" fill="#D2D6DB"/>
<circle cx="521.5" cy="792.5" r="1.5" fill="#D2D6DB"/>
<circle cx="1355.5" cy="157.5" r="1.5" fill="#D2D6DB"/>
<circle cx="1719.5" cy="157.5" r="1.5" fill="#D2D6DB"/>
<circle cx="1355.5" cy="790.5" r="1.5" fill="#D2D6DB"/>
<circle cx="1719.5" cy="790.5" r="1.5" fill="#D2D6DB"/>
<circle cx="103.5" cy="371.5" r="1.5" fill="#D2D6DB"/>
<circle cx="937.5" cy="369.5" r="1.5" fill="#D2D6DB"/>
<circle cx="521.5" cy="371.5" r="1.5" fill="#D2D6DB"/>
<circle cx="1355.5" cy="369.5" r="1.5" fill="#D2D6DB"/>
<circle cx="1719.5" cy="369.5" r="1.5" fill="#D2D6DB"/>
<circle cx="103.5" cy="583.5" r="1.5" fill="#D2D6DB"/>
<circle cx="937.5" cy="581.5" r="1.5" fill="#D2D6DB"/>
<circle cx="521.5" cy="583.5" r="1.5" fill="#D2D6DB"/>
<circle cx="1355.5" cy="581.5" r="1.5" fill="#D2D6DB"/>
<circle cx="1719.5" cy="581.5" r="1.5" fill="#D2D6DB"/>
<circle cx="311.5" cy="0.5" r="1.5" fill="#D2D6DB"/>
<circle cx="311.5" cy="633.5" r="1.5" fill="#D2D6DB"/>
<circle cx="1145.5" cy="631.5" r="1.5" fill="#D2D6DB"/>
<circle cx="729.5" cy="0.5" r="1.5" fill="#D2D6DB"/>
<circle cx="729.5" cy="633.5" r="1.5" fill="#D2D6DB"/>
<circle cx="1563.5" cy="631.5" r="1.5" fill="#D2D6DB"/>
<circle cx="311.5" cy="212.5" r="1.5" fill="#D2D6DB"/>
<circle cx="311.5" cy="845.5" r="1.5" fill="#D2D6DB"/>
<circle cx="1145.5" cy="210.5" r="1.5" fill="#D2D6DB"/>
<circle cx="1145.5" cy="843.5" r="1.5" fill="#D2D6DB"/>
<circle cx="729.5" cy="212.5" r="1.5" fill="#D2D6DB"/>
<circle cx="729.5" cy="845.5" r="1.5" fill="#D2D6DB"/>
<circle cx="1563.5" cy="210.5" r="1.5" fill="#D2D6DB"/>
<circle cx="1563.5" cy="843.5" r="1.5" fill="#D2D6DB"/>
<circle cx="311.5" cy="424.5" r="1.5" fill="#D2D6DB"/>
<circle cx="1145.5" cy="422.5" r="1.5" fill="#D2D6DB"/>
<circle cx="729.5" cy="424.5" r="1.5" fill="#D2D6DB"/>
<circle cx="1563.5" cy="422.5" r="1.5" fill="#D2D6DB"/>
<circle cx="311.5" cy="106.5" r="1.5" fill="#D2D6DB"/>
<circle cx="311.5" cy="739.5" r="1.5" fill="#D2D6DB"/>
<circle cx="1145.5" cy="104.5" r="1.5" fill="#D2D6DB"/>
<circle cx="1145.5" cy="737.5" r="1.5" fill="#D2D6DB"/>
<circle cx="729.5" cy="106.5" r="1.5" fill="#D2D6DB"/>
<circle cx="729.5" cy="739.5" r="1.5" fill="#D2D6DB"/>
<circle cx="1563.5" cy="104.5" r="1.5" fill="#D2D6DB"/>
<circle cx="1563.5" cy="737.5" r="1.5" fill="#D2D6DB"/>
<circle cx="311.5" cy="318.5" r="1.5" fill="#D2D6DB"/>
<circle cx="311.5" cy="951.5" r="1.5" fill="#D2D6DB"/>
<circle cx="1145.5" cy="316.5" r="1.5" fill="#D2D6DB"/>
<circle cx="1145.5" cy="949.5" r="1.5" fill="#D2D6DB"/>
<circle cx="729.5" cy="318.5" r="1.5" fill="#D2D6DB"/>
<circle cx="729.5" cy="951.5" r="1.5" fill="#D2D6DB"/>
<circle cx="1563.5" cy="316.5" r="1.5" fill="#D2D6DB"/>
<circle cx="1563.5" cy="949.5" r="1.5" fill="#D2D6DB"/>
<circle cx="311.5" cy="530.5" r="1.5" fill="#D2D6DB"/>
<circle cx="1145.5" cy="528.5" r="1.5" fill="#D2D6DB"/>
<circle cx="729.5" cy="530.5" r="1.5" fill="#D2D6DB"/>
<circle cx="1563.5" cy="528.5" r="1.5" fill="#D2D6DB"/>
<circle cx="311.5" cy="53.5" r="1.5" fill="#D2D6DB"/>
<circle cx="311.5" cy="686.5" r="1.5" fill="#D2D6DB"/>
<circle cx="1145.5" cy="51.5" r="1.5" fill="#D2D6DB"/>
<circle cx="1145.5" cy="684.5" r="1.5" fill="#D2D6DB"/>
<circle cx="729.5" cy="53.5" r="1.5" fill="#D2D6DB"/>
<circle cx="729.5" cy="686.5" r="1.5" fill="#D2D6DB"/>
<circle cx="1563.5" cy="51.5" r="1.5" fill="#D2D6DB"/>
<circle cx="1563.5" cy="684.5" r="1.5" fill="#D2D6DB"/>
<circle cx="311.5" cy="265.5" r="1.5" fill="#D2D6DB"/>
<circle cx="311.5" cy="898.5" r="1.5" fill="#D2D6DB"/>
<circle cx="1145.5" cy="263.5" r="1.5" fill="#D2D6DB"/>
<circle cx="1145.5" cy="896.5" r="1.5" fill="#D2D6DB"/>
<circle cx="729.5" cy="265.5" r="1.5" fill="#D2D6DB"/>
<circle cx="729.5" cy="898.5" r="1.5" fill="#D2D6DB"/>
<circle cx="1563.5" cy="263.5" r="1.5" fill="#D2D6DB"/>
<circle cx="1563.5" cy="896.5" r="1.5" fill="#D2D6DB"/>
<circle cx="311.5" cy="477.5" r="1.5" fill="#D2D6DB"/>
<circle cx="1145.5" cy="475.5" r="1.5" fill="#D2D6DB"/>
<circle cx="729.5" cy="477.5" r="1.5" fill="#D2D6DB"/>
<circle cx="1563.5" cy="475.5" r="1.5" fill="#D2D6DB"/>
<circle cx="311.5" cy="159.5" r="1.5" fill="#D2D6DB"/>
<circle cx="311.5" cy="792.5" r="1.5" fill="#D2D6DB"/>
<circle cx="1145.5" cy="157.5" r="1.5" fill="#D2D6DB"/>
<circle cx="1145.5" cy="790.5" r="1.5" fill="#D2D6DB"/>
<circle cx="729.5" cy="159.5" r="1.5" fill="#D2D6DB"/>
<circle cx="729.5" cy="792.5" r="1.5" fill="#D2D6DB"/>
<circle cx="1563.5" cy="157.5" r="1.5" fill="#D2D6DB"/>
<circle cx="1563.5" cy="790.5" r="1.5" fill="#D2D6DB"/>
<circle cx="311.5" cy="371.5" r="1.5" fill="#D2D6DB"/>
<circle cx="1145.5" cy="369.5" r="1.5" fill="#D2D6DB"/>
<circle cx="729.5" cy="371.5" r="1.5" fill="#D2D6DB"/>
<circle cx="1563.5" cy="369.5" r="1.5" fill="#D2D6DB"/>
<circle cx="311.5" cy="583.5" r="1.5" fill="#D2D6DB"/>
<circle cx="1145.5" cy="581.5" r="1.5" fill="#D2D6DB"/>
<circle cx="729.5" cy="583.5" r="1.5" fill="#D2D6DB"/>
<circle cx="1563.5" cy="581.5" r="1.5" fill="#D2D6DB"/>
<circle cx="155.5" cy="0.5" r="1.5" fill="#D2D6DB"/>
<circle cx="155.5" cy="633.5" r="1.5" fill="#D2D6DB"/>
<circle cx="989.5" cy="631.5" r="1.5" fill="#D2D6DB"/>
<circle cx="573.5" cy="0.5" r="1.5" fill="#D2D6DB"/>
<circle cx="573.5" cy="633.5" r="1.5" fill="#D2D6DB"/>
<circle cx="1407.5" cy="631.5" r="1.5" fill="#D2D6DB"/>
<circle cx="1771.5" cy="631.5" r="1.5" fill="#D2D6DB"/>
<circle cx="155.5" cy="212.5" r="1.5" fill="#D2D6DB"/>
<circle cx="155.5" cy="845.5" r="1.5" fill="#D2D6DB"/>
<circle cx="989.5" cy="210.5" r="1.5" fill="#D2D6DB"/>
<circle cx="989.5" cy="843.5" r="1.5" fill="#D2D6DB"/>
<circle cx="573.5" cy="212.5" r="1.5" fill="#D2D6DB"/>
<circle cx="573.5" cy="845.5" r="1.5" fill="#D2D6DB"/>
<circle cx="1407.5" cy="210.5" r="1.5" fill="#D2D6DB"/>
<circle cx="1771.5" cy="210.5" r="1.5" fill="#D2D6DB"/>
<circle cx="1407.5" cy="843.5" r="1.5" fill="#D2D6DB"/>
<circle cx="1771.5" cy="843.5" r="1.5" fill="#D2D6DB"/>
<circle cx="155.5" cy="424.5" r="1.5" fill="#D2D6DB"/>
<circle cx="989.5" cy="422.5" r="1.5" fill="#D2D6DB"/>
<circle cx="573.5" cy="424.5" r="1.5" fill="#D2D6DB"/>
<circle cx="1407.5" cy="422.5" r="1.5" fill="#D2D6DB"/>
<circle cx="1771.5" cy="422.5" r="1.5" fill="#D2D6DB"/>
<circle cx="155.5" cy="106.5" r="1.5" fill="#D2D6DB"/>
<circle cx="155.5" cy="739.5" r="1.5" fill="#D2D6DB"/>
<circle cx="989.5" cy="104.5" r="1.5" fill="#D2D6DB"/>
<circle cx="989.5" cy="737.5" r="1.5" fill="#D2D6DB"/>
<circle cx="573.5" cy="106.5" r="1.5" fill="#D2D6DB"/>
<circle cx="573.5" cy="739.5" r="1.5" fill="#D2D6DB"/>
<circle cx="1407.5" cy="104.5" r="1.5" fill="#D2D6DB"/>
<circle cx="1771.5" cy="104.5" r="1.5" fill="#D2D6DB"/>
<circle cx="1407.5" cy="737.5" r="1.5" fill="#D2D6DB"/>
<circle cx="1771.5" cy="737.5" r="1.5" fill="#D2D6DB"/>
<circle cx="155.5" cy="318.5" r="1.5" fill="#D2D6DB"/>
<circle cx="155.5" cy="951.5" r="1.5" fill="#D2D6DB"/>
<circle cx="989.5" cy="316.5" r="1.5" fill="#D2D6DB"/>
<circle cx="989.5" cy="949.5" r="1.5" fill="#D2D6DB"/>
<circle cx="573.5" cy="318.5" r="1.5" fill="#D2D6DB"/>
<circle cx="573.5" cy="951.5" r="1.5" fill="#D2D6DB"/>
<circle cx="1407.5" cy="316.5" r="1.5" fill="#D2D6DB"/>
<circle cx="1771.5" cy="316.5" r="1.5" fill="#D2D6DB"/>
<circle cx="1407.5" cy="949.5" r="1.5" fill="#D2D6DB"/>
<circle cx="1771.5" cy="949.5" r="1.5" fill="#D2D6DB"/>
<circle cx="155.5" cy="530.5" r="1.5" fill="#D2D6DB"/>
<circle cx="989.5" cy="528.5" r="1.5" fill="#D2D6DB"/>
<circle cx="573.5" cy="530.5" r="1.5" fill="#D2D6DB"/>
<circle cx="1407.5" cy="528.5" r="1.5" fill="#D2D6DB"/>
<circle cx="1771.5" cy="528.5" r="1.5" fill="#D2D6DB"/>
<circle cx="155.5" cy="53.5" r="1.5" fill="#D2D6DB"/>
<circle cx="155.5" cy="686.5" r="1.5" fill="#D2D6DB"/>
<circle cx="989.5" cy="51.5" r="1.5" fill="#D2D6DB"/>
<circle cx="989.5" cy="684.5" r="1.5" fill="#D2D6DB"/>
<circle cx="573.5" cy="53.5" r="1.5" fill="#D2D6DB"/>
<circle cx="573.5" cy="686.5" r="1.5" fill="#D2D6DB"/>
<circle cx="1407.5" cy="51.5" r="1.5" fill="#D2D6DB"/>
<circle cx="1771.5" cy="51.5" r="1.5" fill="#D2D6DB"/>
<circle cx="1407.5" cy="684.5" r="1.5" fill="#D2D6DB"/>
<circle cx="1771.5" cy="684.5" r="1.5" fill="#D2D6DB"/>
<circle cx="155.5" cy="265.5" r="1.5" fill="#D2D6DB"/>
<circle cx="155.5" cy="898.5" r="1.5" fill="#D2D6DB"/>
<circle cx="989.5" cy="263.5" r="1.5" fill="#D2D6DB"/>
<circle cx="989.5" cy="896.5" r="1.5" fill="#D2D6DB"/>
<circle cx="573.5" cy="265.5" r="1.5" fill="#D2D6DB"/>
<circle cx="573.5" cy="898.5" r="1.5" fill="#D2D6DB"/>
<circle cx="1407.5" cy="263.5" r="1.5" fill="#D2D6DB"/>
<circle cx="1771.5" cy="263.5" r="1.5" fill="#D2D6DB"/>
<circle cx="1407.5" cy="896.5" r="1.5" fill="#D2D6DB"/>
<circle cx="1771.5" cy="896.5" r="1.5" fill="#D2D6DB"/>
<circle cx="155.5" cy="477.5" r="1.5" fill="#D2D6DB"/>
<circle cx="989.5" cy="475.5" r="1.5" fill="#D2D6DB"/>
<circle cx="573.5" cy="477.5" r="1.5" fill="#D2D6DB"/>
<circle cx="1407.5" cy="475.5" r="1.5" fill="#D2D6DB"/>
<circle cx="1771.5" cy="475.5" r="1.5" fill="#D2D6DB"/>
<circle cx="155.5" cy="159.5" r="1.5" fill="#D2D6DB"/>
<circle cx="155.5" cy="792.5" r="1.5" fill="#D2D6DB"/>
<circle cx="989.5" cy="157.5" r="1.5" fill="#D2D6DB"/>
<circle cx="989.5" cy="790.5" r="1.5" fill="#D2D6DB"/>
<circle cx="573.5" cy="159.5" r="1.5" fill="#D2D6DB"/>
<circle cx="573.5" cy="792.5" r="1.5" fill="#D2D6DB"/>
<circle cx="1407.5" cy="157.5" r="1.5" fill="#D2D6DB"/>
<circle cx="1771.5" cy="157.5" r="1.5" fill="#D2D6DB"/>
<circle cx="1407.5" cy="790.5" r="1.5" fill="#D2D6DB"/>
<circle cx="1771.5" cy="790.5" r="1.5" fill="#D2D6DB"/>
<circle cx="155.5" cy="371.5" r="1.5" fill="#D2D6DB"/>
<circle cx="989.5" cy="369.5" r="1.5" fill="#D2D6DB"/>
<circle cx="573.5" cy="371.5" r="1.5" fill="#D2D6DB"/>
<circle cx="1407.5" cy="369.5" r="1.5" fill="#D2D6DB"/>
<circle cx="1771.5" cy="369.5" r="1.5" fill="#D2D6DB"/>
<circle cx="155.5" cy="583.5" r="1.5" fill="#D2D6DB"/>
<circle cx="989.5" cy="581.5" r="1.5" fill="#D2D6DB"/>
<circle cx="573.5" cy="583.5" r="1.5" fill="#D2D6DB"/>
<circle cx="1407.5" cy="581.5" r="1.5" fill="#D2D6DB"/>
<circle cx="1771.5" cy="581.5" r="1.5" fill="#D2D6DB"/>
<circle cx="363.5" cy="0.5" r="1.5" fill="#D2D6DB"/>
<circle cx="363.5" cy="633.5" r="1.5" fill="#D2D6DB"/>
<circle cx="1197.5" cy="631.5" r="1.5" fill="#D2D6DB"/>
<circle cx="781.5" cy="0.5" r="1.5" fill="#D2D6DB"/>
<circle cx="781.5" cy="633.5" r="1.5" fill="#D2D6DB"/>
<circle cx="1615.5" cy="631.5" r="1.5" fill="#D2D6DB"/>
<circle cx="363.5" cy="212.5" r="1.5" fill="#D2D6DB"/>
<circle cx="363.5" cy="845.5" r="1.5" fill="#D2D6DB"/>
<circle cx="1197.5" cy="210.5" r="1.5" fill="#D2D6DB"/>
<circle cx="1197.5" cy="843.5" r="1.5" fill="#D2D6DB"/>
<circle cx="781.5" cy="212.5" r="1.5" fill="#D2D6DB"/>
<circle cx="781.5" cy="845.5" r="1.5" fill="#D2D6DB"/>
<circle cx="1615.5" cy="210.5" r="1.5" fill="#D2D6DB"/>
<circle cx="1615.5" cy="843.5" r="1.5" fill="#D2D6DB"/>
<circle cx="363.5" cy="424.5" r="1.5" fill="#D2D6DB"/>
<circle cx="1197.5" cy="422.5" r="1.5" fill="#D2D6DB"/>
<circle cx="781.5" cy="424.5" r="1.5" fill="#D2D6DB"/>
<circle cx="1615.5" cy="422.5" r="1.5" fill="#D2D6DB"/>
<circle cx="363.5" cy="106.5" r="1.5" fill="#D2D6DB"/>
<circle cx="363.5" cy="739.5" r="1.5" fill="#D2D6DB"/>
<circle cx="1197.5" cy="104.5" r="1.5" fill="#D2D6DB"/>
<circle cx="1197.5" cy="737.5" r="1.5" fill="#D2D6DB"/>
<circle cx="781.5" cy="106.5" r="1.5" fill="#D2D6DB"/>
<circle cx="781.5" cy="739.5" r="1.5" fill="#D2D6DB"/>
<circle cx="1615.5" cy="104.5" r="1.5" fill="#D2D6DB"/>
<circle cx="1615.5" cy="737.5" r="1.5" fill="#D2D6DB"/>
<circle cx="363.5" cy="318.5" r="1.5" fill="#D2D6DB"/>
<circle cx="363.5" cy="951.5" r="1.5" fill="#D2D6DB"/>
<circle cx="1197.5" cy="316.5" r="1.5" fill="#D2D6DB"/>
<circle cx="1197.5" cy="949.5" r="1.5" fill="#D2D6DB"/>
<circle cx="781.5" cy="318.5" r="1.5" fill="#D2D6DB"/>
<circle cx="781.5" cy="951.5" r="1.5" fill="#D2D6DB"/>
<circle cx="1615.5" cy="316.5" r="1.5" fill="#D2D6DB"/>
<circle cx="1615.5" cy="949.5" r="1.5" fill="#D2D6DB"/>
<circle cx="363.5" cy="530.5" r="1.5" fill="#D2D6DB"/>
<circle cx="1197.5" cy="528.5" r="1.5" fill="#D2D6DB"/>
<circle cx="781.5" cy="530.5" r="1.5" fill="#D2D6DB"/>
<circle cx="1615.5" cy="528.5" r="1.5" fill="#D2D6DB"/>
<circle cx="363.5" cy="53.5" r="1.5" fill="#D2D6DB"/>
<circle cx="363.5" cy="686.5" r="1.5" fill="#D2D6DB"/>
<circle cx="1197.5" cy="51.5" r="1.5" fill="#D2D6DB"/>
<circle cx="1197.5" cy="684.5" r="1.5" fill="#D2D6DB"/>
<circle cx="781.5" cy="53.5" r="1.5" fill="#D2D6DB"/>
<circle cx="781.5" cy="686.5" r="1.5" fill="#D2D6DB"/>
<circle cx="1615.5" cy="51.5" r="1.5" fill="#D2D6DB"/>
<circle cx="1615.5" cy="684.5" r="1.5" fill="#D2D6DB"/>
<circle cx="363.5" cy="265.5" r="1.5" fill="#D2D6DB"/>
<circle cx="363.5" cy="898.5" r="1.5" fill="#D2D6DB"/>
<circle cx="1197.5" cy="263.5" r="1.5" fill="#D2D6DB"/>
<circle cx="1197.5" cy="896.5" r="1.5" fill="#D2D6DB"/>
<circle cx="781.5" cy="265.5" r="1.5" fill="#D2D6DB"/>
<circle cx="781.5" cy="898.5" r="1.5" fill="#D2D6DB"/>
<circle cx="1615.5" cy="263.5" r="1.5" fill="#D2D6DB"/>
<circle cx="1615.5" cy="896.5" r="1.5" fill="#D2D6DB"/>
<circle cx="363.5" cy="477.5" r="1.5" fill="#D2D6DB"/>
<circle cx="1197.5" cy="475.5" r="1.5" fill="#D2D6DB"/>
<circle cx="781.5" cy="477.5" r="1.5" fill="#D2D6DB"/>
<circle cx="1615.5" cy="475.5" r="1.5" fill="#D2D6DB"/>
<circle cx="363.5" cy="159.5" r="1.5" fill="#D2D6DB"/>
<circle cx="363.5" cy="792.5" r="1.5" fill="#D2D6DB"/>
<circle cx="1197.5" cy="157.5" r="1.5" fill="#D2D6DB"/>
<circle cx="1197.5" cy="790.5" r="1.5" fill="#D2D6DB"/>
<circle cx="781.5" cy="159.5" r="1.5" fill="#D2D6DB"/>
<circle cx="781.5" cy="792.5" r="1.5" fill="#D2D6DB"/>
<circle cx="1615.5" cy="157.5" r="1.5" fill="#D2D6DB"/>
<circle cx="1615.5" cy="790.5" r="1.5" fill="#D2D6DB"/>
<circle cx="363.5" cy="371.5" r="1.5" fill="#D2D6DB"/>
<circle cx="1197.5" cy="369.5" r="1.5" fill="#D2D6DB"/>
<circle cx="781.5" cy="371.5" r="1.5" fill="#D2D6DB"/>
<circle cx="1615.5" cy="369.5" r="1.5" fill="#D2D6DB"/>
<circle cx="363.5" cy="583.5" r="1.5" fill="#D2D6DB"/>
<circle cx="1197.5" cy="581.5" r="1.5" fill="#D2D6DB"/>
<circle cx="781.5" cy="583.5" r="1.5" fill="#D2D6DB"/>
<circle cx="1615.5" cy="581.5" r="1.5" fill="#D2D6DB"/>
</svg>
